<svg width="1308" height="90" viewBox="0 0 1308 90" fill="none" xmlns="http://www.w3.org/2000/svg">
	<defs>
      <linearGradient id="logo-gradient" x1="50%" y1="0%" x2="50%" y2="100%" gradientTransform="rotate(-45)">
        <stop offset="20%" stop-color="orange">
          <animate attributeName="stop-color" values="orange; cyan; orange;" dur="4s" repeatCount="indefinite"></animate>
        </stop>
        <stop offset="100%" stop-color="cyan">
          <animate attributeName="stop-color" values="cyan; orange; cyan;" dur="4s" repeatCount="indefinite"></animate>
        </stop>
      </linearGradient>

      <clipPath id="clip">
        <path d="M159.806808,170.989562 C159.806808,174.700114 158.443028,184.676026 152.279861,190.187109 C146.745663,195.138568 136.594564,195.844181 132.679627,195.844181 C128.798754,195.844181 118.134261,194.627606 112.409061,189.140855 C105.929585,182.924159 104.584053,172.157474 104.584053,168.422589 C104.584053,165.198667 104.408866,157.449086 109.726514,153.51955 C115.995523,148.884401 128.203849,148.300445 132.679627,148.300445 C136.774617,148.300445 149.029173,148.422103 154.739775,153.142412 C160.565951,157.972213 159.806808,167.437164 159.806808,170.989562 Z M73.1331663,168.422589 C73.1331663,172.157474 71.7888512,182.924159 65.3081584,189.140855 C59.5829581,194.627606 48.918465,195.844181 45.0375922,195.844181 C41.1238718,195.844181 30.9715565,195.138568 25.4373586,190.187109 C19.2754082,184.676026 17.9104114,174.700114 17.9104114,170.989562 C17.9104114,167.437164 17.1512689,157.972213 22.9774447,153.142412 C28.6880459,148.422103 40.9426021,148.300445 45.0375922,148.300445 C49.5133702,148.300445 61.7216963,148.884401 67.9919218,153.51955 C73.3095694,157.449086 73.1331663,165.198667 73.1331663,168.422589 Z M168.527215,166.56123 C170.923867,164.651208 175.414244,163.945595 175.414244,163.945595 C176.071194,163.677948 176.500645,163.04533 176.500645,162.327551 L176.500645,154.553639 C176.500645,153.775031 175.981167,153.081584 175.228108,152.874766 C173.173313,152.315141 168.798511,151.049904 163.34704,149.20071 C155.028103,146.366092 150.827271,142.33923 132.679627,142.33923 C110.769118,142.33923 102.850434,151.585197 101.323633,151.585197 C99.2639723,151.585197 99.5401346,150.49028 96.7955425,149.942821 C95.4816419,149.675174 93.6652959,149.492688 88.8586096,149.492688 C84.0519233,149.492688 82.2635588,149.736003 80.9216771,149.942821 C78.1564028,150.368622 78.4532469,151.585197 76.3948028,151.585197 C74.8667851,151.585197 66.9481009,142.33923 45.0375922,142.33923 C26.8899487,142.33923 22.6891165,146.366092 14.3701793,149.20071 C8.91870849,151.049904 4.54390618,152.315141 2.48911166,152.874766 C1.73605197,153.081584 1.21657461,153.775031 1.21657461,154.553639 L1.21657461,162.327551 C1.21657461,163.04533 1.64602545,163.677948 2.30297574,163.945595 C2.30297574,163.945595 6.79335265,164.651208 9.19122121,166.56123 C12.3397163,169.07954 13.7363439,184.834181 21.8070999,192.255286 C29.8133774,199.615562 36.7648849,199.65206 45.0375922,199.65206 C53.3102995,199.65206 61.7496774,198.703131 69.1841652,190.880557 C74.1234579,185.673617 78.1357211,174.773109 80.0554757,167.266843 C80.7026934,164.736368 78.9094625,163.483296 78.9094625,160.977153 C78.9094625,158.069539 81.2769169,156.986788 84.3597169,156.439329 C85.6164384,156.220346 87.2381321,156.001363 88.8586096,156.001363 C90.479087,156.001363 92.1847247,156.220346 93.3587194,156.439329 C96.4330032,157.035451 98.807757,158.069539 98.807757,160.977153 C98.807757,163.483296 97.0145258,164.736368 97.6617435,167.266843 C99.5814984,174.773109 103.593761,185.673617 108.533054,190.880557 C115.967542,198.703131 124.408136,199.65206 132.679627,199.65206 C140.952335,199.65206 147.903842,199.615562 155.911336,192.255286 C163.980875,184.834181 165.37872,169.07954 168.527215,166.56123 Z" id="Fill-28" fill="#005E7C"></path>
        <path d="M9.81014266,145.830799 C10.100904,145.68481 10.4026145,145.550987 10.7274399,145.465826 C12.1532654,145.064357 14.7433527,144.322246 18.0305373,143.263826 C18.2446545,132.764788 22.6206733,125.319351 22.1924391,116.766831 C21.4624943,102.15577 24.8311894,86.1699798 53.6323769,87.3500572 C82.4335641,88.5301346 83.3776259,91.8392174 100.37439,91.8392174 C117.372371,91.8392174 133.661088,85.6955158 141.924063,85.6955158 C154.642134,85.6955158 152.429184,96.3162121 152.429184,104.321273 C152.429184,114.856809 157.302782,128.117472 160.106987,143.032677 C163.733596,144.212755 166.603495,145.040025 168.131513,145.465826 C168.411325,145.538821 168.677755,145.648313 168.933236,145.76997 C173.484441,135.429086 176.441934,124.273097 176.441934,112.59398 C176.441934,100.306577 168.163144,90.4888195 164.91124,89.0897588 C168.629092,89.892698 173.439428,92.9584661 175.711989,97.4111293 C174.826323,87.0580792 168.009855,82.5080902 165.412469,82.0336263 C170.606026,78.2622448 170.783646,74.7828416 170.783646,71.7170735 C168.717902,75.1964767 167.006182,75.9629187 164.940438,76.1332391 C168.363879,68.8216259 167.744642,57.2276696 160.926958,53.006156 C160.307722,69.4420789 158.094772,33.0543322 136.49449,27.3850945 C140.212342,30.2197134 144.373027,35.9741112 143.812187,40.8404096 C139.591889,33.4071389 125.870144,18.1877904 95.180833,12.9930169 C99.6371456,14.0757683 100.138374,17.8593153 97.0701734,18.1877904 C93.2622948,18.5892601 82.3155563,10.6815251 85.1477421,0 C80.131805,4.6716465 59.1215613,2.6642984 48.6748352,21.2535585 C48.5933247,19.1853816 49.6785094,15.6451495 51.0946021,13.7594589 C38.316919,28.0907078 5.56186412,37.3001776 15.8601682,77.2038249 C10.6970255,69.6123993 10.0765725,59.174189 11.7298974,53.3589623 C7.8636233,57.1303439 -1.1365957,71.303438 7.83442551,86.644444 C6.1811006,84.9290735 5.47305417,84.0409741 1.22477563,82.6297478 C6.62393375,85.1115599 7.50960007,89.892698 7.59841002,93.9560572 C2.68466516,95.1118032 -0.604952589,102.338256 0.0933612368,108.360301 C0.874402139,102.082776 4.99494036,99.3819801 7.4597205,99.7956156 C2.36957234,101.243339 -5.63305545,117.192632 9.81014266,145.830799" id="Fill-29" fill="#343433"></path>
        <path d="M9.81014266,145.830799 C10.100904,145.68481 10.4026145,145.550987 10.7274399,145.465826 C12.1532654,145.064357 14.7433527,144.322246 18.0305373,143.263826 C18.2446545,132.764788 22.6206733,125.319351 22.1924391,116.766831 C21.4624943,102.15577 24.8311894,86.1699798 53.6323769,87.3500572 C82.4335641,88.5301346 83.3776259,91.8392174 100.37439,91.8392174 C117.372371,91.8392174 133.661088,85.6955158 141.924063,85.6955158 C154.642134,85.6955158 152.429184,96.3162121 152.429184,104.321273 C152.429184,114.856809 157.302782,128.117472 160.106987,143.032677 C163.733596,144.212755 166.603495,145.040025 168.131513,145.465826 C168.411325,145.538821 168.677755,145.648313 168.933236,145.76997 C173.484441,135.429086 176.441934,124.273097 176.441934,112.59398 C176.441934,100.306577 168.163144,90.4888195 164.91124,89.0897588 C168.629092,89.892698 173.439428,92.9584661 175.711989,97.4111293 C174.826323,87.0580792 168.009855,82.5080902 165.412469,82.0336263 C170.606026,78.2622448 170.783646,74.7828416 170.783646,71.7170735 C168.717902,75.1964767 167.006182,75.9629187 164.940438,76.1332391 C168.363879,68.8216259 167.744642,57.2276696 160.926958,53.006156 C160.307722,69.4420789 158.094772,33.0543322 136.49449,27.3850945 C140.212342,30.2197134 144.373027,35.9741112 143.812187,40.8404096 C139.591889,33.4071389 125.870144,18.1877904 95.180833,12.9930169 C99.6371456,14.0757683 100.138374,17.8593153 97.0701734,18.1877904 C93.2622948,18.5892601 82.3155563,10.6815251 85.1477421,0 C80.131805,4.6716465 59.1215613,2.6642984 48.6748352,21.2535585 C48.5933247,19.1853816 49.6785094,15.6451495 51.0946021,13.7594589 C38.316919,28.0907078 5.56186412,37.3001776 15.8601682,77.2038249 C10.6970255,69.6123993 10.0765725,59.174189 11.7298974,53.3589623 C7.8636233,57.1303439 -1.1365957,71.303438 7.83442551,86.644444 C6.1811006,84.9290735 5.47305417,84.0409741 1.22477563,82.6297478 C6.62393375,85.1115599 7.50960007,89.892698 7.59841002,93.9560572 C2.68466516,95.1118032 -0.604952589,102.338256 0.0933612368,108.360301 C0.874402139,102.082776 4.99494036,99.3819801 7.4597205,99.7956156 C2.36957234,101.243339 -5.63305545,117.192632 9.81014266,145.830799" id="Fill-30" fill="#343433"></path>
        <path d="M82.0749897,4.56215481 C80.7829876,16.9590501 91.8161027,23.6502105 98.2797634,23.6502105 C103.602277,23.6502105 104.681379,19.793669 103.616876,18.2729507 C116.560013,19.1367187 137.429135,31.1078129 143.318572,40.2686195 C138.739385,32.6528626 124.951945,18.0539672 95.0242099,12.9930169 C99.4805226,14.0757683 99.9817513,17.8593153 96.9135503,18.1877904 C93.1056718,18.5892601 82.1589332,10.6815251 84.991119,0 C80.183216,4.47699456 60.6888245,2.8224531 49.8795591,19.0515584 C59.5683595,5.63274046 76.1441883,7.53059684 82.0749897,4.56215481" id="Fill-31" fill="#005E7C"></path>
        <path d="M119.279283,166.486817 C116.323006,167.484409 114.4215,170.331193 114.234148,172.934663 L110.745012,171.170629 C110.479799,174.102574 111.65501,177.107514 114.145338,179.054033 C118.048109,182.107635 123.688149,181.414188 126.740535,177.521149 C129.794137,173.615945 129.104339,167.971038 125.201568,164.917436 C122.71124,162.970917 119.515298,162.557281 116.734209,163.518375 L119.279283,166.486817" id="Fill-32" fill="#343433"></path>
        <path d="M63.1421144,170.381994 C62.1396568,167.425718 59.288006,165.515696 56.6930526,165.33321 L58.4497861,161.84164 C55.5190579,161.573994 52.5177684,162.754071 50.568816,165.248049 C47.5152135,169.153254 48.2050114,174.785994 52.1077826,177.839597 C56.0105542,180.893199 61.6493773,180.199751 64.7029798,176.306713 C66.6507158,173.812735 67.0692174,170.613144 66.1056902,167.839353 L63.1421144,170.381994" id="Fill-33" fill="#343433"></path>
      </clipPath>
    </defs>
    <path d="M2 1.71414V85.9822C2 87.0868 2.89543 87.9822 4 87.9822H79.1655H120.324H337.924H503" stroke="url(#paint0_linear_2_28)" stroke-opacity="0.8" stroke-width="3" stroke-linecap="round" class="svg-elem-1"></path>
	<path d="M1306 1.71414V85.9822C1306 87.0868 1305.1 87.9822 1304 87.9822H1228.83H1187.68H970.076H805" stroke="url(#paint1_linear_2_28)" stroke-opacity="0.8" stroke-width="3" stroke-linecap="round" class="svg-elem-2"></path>
	<path d="M1296 57.5923V78.1396C1296 79.2442 1295.1 80.1396 1294 80.1396H1275.82H1265.06H1208.16H1165" stroke="url(#paint2_linear_2_28)" stroke-opacity="0.8" stroke-width="3" stroke-linecap="round" class="svg-elem-3"></path>
	<path d="M13 57.5923V78.1396C13 79.2442 13.8954 80.1396 15 80.1396H33.177H43.9389H100.836H144" stroke="url(#paint3_linear_2_28)" stroke-opacity="0.8" stroke-width="3" stroke-linecap="round" class="svg-elem-4"></path>
	<defs>
		<linearGradient id="paint0_linear_2_28" x1="7.19463" y1="87.9822" x2="517.43" y2="87.9822" gradientUnits="userSpaceOnUse">
			<stop stop-color="white" stop-opacity="0.6"></stop>
			<stop offset="1" stop-color="#FCFCFC" stop-opacity="0"></stop>
		</linearGradient>
		<linearGradient id="paint1_linear_2_28" x1="1300.81" y1="87.9822" x2="790.57" y2="87.9822" gradientUnits="userSpaceOnUse">
			<stop stop-color="white" stop-opacity="0.6"></stop>
			<stop offset="1" stop-color="#FCFCFC" stop-opacity="0"></stop>
		</linearGradient>
		<linearGradient id="paint2_linear_2_28" x1="1294.64" y1="80.1397" x2="1161.23" y2="80.1397" gradientUnits="userSpaceOnUse">
			<stop stop-color="white" stop-opacity="0.6"></stop>
			<stop offset="1" stop-color="#FCFCFC" stop-opacity="0"></stop>
		</linearGradient>
		<linearGradient id="paint3_linear_2_28" x1="14.3583" y1="80.1397" x2="147.773" y2="80.1397" gradientUnits="userSpaceOnUse">
			<stop stop-color="white" stop-opacity="0.6"></stop>
			<stop offset="1" stop-color="#FCFCFC" stop-opacity="0"></stop>
		</linearGradient>
	</defs>
</svg>
